/* XPM */
static char * bottom_left_active_xpm[] = {
"27 19 2 1",
" 	c None",
".	c #102032",
"         .....             ",
"         .....             ",
"         .....             ",
"         .....             ",
"         .....             ",
"         .....             ",
"         .....             ",
"         .....             ",
"         .....             ",
"         .....             ",
"         .....             ",
"         .....             ",
"         .....             ",
"         ..................",
"          .................",
"          .................",
"           ................",
"             ..............",
"                           "};
