/* XPM */
static char * bottom_active_xpm[] = {
"32 6 2 1",
" 	c None",
".	c #102032",
"................................",
"................................",
"................................",
"................................",
"................................",
"                                "};
