/* XPM */
static char * bottom_right_inactive_xpm[] = {
"27 19 2 1",
" 	c None",
".	c #102032",
"                     ..... ",
"                     ..... ",
"                     ..... ",
"                     ..... ",
"                     ..... ",
"                     ..... ",
"                     ..... ",
"                     ..... ",
"                     ..... ",
"                     ..... ",
"                     ..... ",
"                     ..... ",
"                     ..... ",
".......................... ",
".........................  ",
".........................  ",
"........................   ",
"......................     ",
"                           "};
