/* XPM */
static char * close_inactive_xpm[] = {
"12 24 2 1",
" 	c None",
".	c #102032",
"            ",
"            ",
"            ",
"            ",
"            ",
"            ",
"            ",
"            ",
"            ",
"            ",
"            ",
"            ",
"            ",
"            ",
"            ",
"            ",
"            ",
"            ",
"............",
"............",
"............",
"............",
"............",
"............"};
