/* XPM */
static char * hide_active_xpm[] = {
"12 24 2 1",
" 	c None",
".	c #102032",
"            ",
"            ",
"            ",
"            ",
"            ",
"            ",
"            ",
"            ",
"            ",
"            ",
"            ",
"            ",
"            ",
"            ",
"            ",
"            ",
"            ",
"            ",
"............",
"............",
"............",
"............",
"............",
"............"};
