/* XPM */
static char * left_active_xpm[] = {
"14 32 2 1",
" 	c None",
".	c #102032",
"         .....",
"         .....",
"         .....",
"         .....",
"         .....",
"         .....",
"         .....",
"         .....",
"         .....",
"         .....",
"         .....",
"         .....",
"         .....",
"         .....",
"         .....",
"         .....",
"         .....",
"         .....",
"         .....",
"         .....",
"         .....",
"         .....",
"         .....",
"         .....",
"         .....",
"         .....",
"         .....",
"         .....",
"         .....",
"         .....",
"         .....",
"         ....."};
