/* XPM */
static char * left_inactive_xpm[] = {
"14 32 2 1",
" 	c None",
".	c #102032",
"         .....",
"         .....",
"         .....",
"         .....",
"         .....",
"         .....",
"         .....",
"         .....",
"         .....",
"         .....",
"         .....",
"         .....",
"         .....",
"         .....",
"         .....",
"         .....",
"         .....",
"         .....",
"         .....",
"         .....",
"         .....",
"         .....",
"         .....",
"         .....",
"         .....",
"         .....",
"         .....",
"         .....",
"         .....",
"         .....",
"         .....",
"         ....."};
