/* XPM */
static char * maximize_pressed_xpm[] = {
"12 24 2 1",
" 	c None",
".	c #FFFFFF",
"            ",
"            ",
"            ",
"            ",
"            ",
"            ",
"            ",
"            ",
"            ",
"            ",
"            ",
"            ",
"   ......   ",
"  ........  ",
"  ......... ",
" ...........",
" ...........",
" ...........",
" ...........",
"  ......... ",
"  ......... ",
"   ......   ",
"            ",
"            "};
