/* XPM */
static char * menu_inactive_xpm[] = {
"20 20 102 2",
"  	c None",
". 	c #020204",
"+ 	c #030305",
"@ 	c #1D1D1E",
"# 	c #313131",
"$ 	c #000000",
"% 	c #080504",
"& 	c #C2C2C1",
"* 	c #DFDFDE",
"= 	c #7A7978",
"- 	c #4A4A49",
"; 	c #675A4A",
"> 	c #917D4E",
", 	c #736021",
"' 	c #BBBCBD",
") 	c #211601",
"! 	c #D19D05",
"~ 	c #EECA1E",
"{ 	c #EFD122",
"] 	c #C09715",
"^ 	c #DBB959",
"/ 	c #E5C206",
"( 	c #B8842F",
"_ 	c #988874",
": 	c #141313",
"< 	c #545453",
"[ 	c #CFCCCA",
"} 	c #BDAFA4",
"| 	c #D8D0C9",
"1 	c #F5F5F4",
"2 	c #0F0F0F",
"3 	c #0A0A0C",
"4 	c #E0E0DE",
"5 	c #F9F9F8",
"6 	c #FEFEFC",
"7 	c #DCDCDB",
"8 	c #505051",
"9 	c #E4E4E4",
"0 	c #FCFCFB",
"a 	c #E6E6E5",
"b 	c #D1D0D0",
"c 	c #7B7B7C",
"d 	c #B3B3B1",
"e 	c #FFFFFD",
"f 	c #F7F7F6",
"g 	c #FCFCFA",
"h 	c #F6F6F4",
"i 	c #969696",
"j 	c #151515",
"k 	c #0C0C0E",
"l 	c #5C5C5B",
"m 	c #0D0D0E",
"n 	c #0D0D0F",
"o 	c #B0B0B0",
"p 	c #1C1C1C",
"q 	c #0C0C0C",
"r 	c #F0B812",
"s 	c #AC8408",
"t 	c #F8ECDD",
"u 	c #ECBE00",
"v 	c #000004",
"w 	c #846906",
"x 	c #DCA20A",
"y 	c #EEB50B",
"z 	c #F5BD0C",
"A 	c #F6BE0C",
"B 	c #AA8442",
"C 	c #8E8E8E",
"D 	c #E9DED3",
"E 	c #E0A600",
"F 	c #A57207",
"G 	c #B78708",
"H 	c #EDB70B",
"I 	c #E0A40A",
"J 	c #D8AC01",
"K 	c #88857A",
"L 	c #F9F9F9",
"M 	c #D2CBC1",
"N 	c #DEA800",
"O 	c #E9B10A",
"P 	c #F0B60B",
"Q 	c #E1A80B",
"R 	c #F3BE03",
"S 	c #C7AA7B",
"T 	c #4F2F00",
"U 	c #E1A70B",
"V 	c #E6AC0A",
"W 	c #DB9C0C",
"X 	c #E1A70A",
"Y 	c #E3AA0A",
"Z 	c #EEB60B",
"` 	c #F1B80E",
" .	c #B78006",
"..	c #5A3905",
"+.	c #DEA20B",
"@.	c #F1B80B",
"#.	c #E0A811",
"$.	c #D89C08",
"%.	c #926706",
"&.	c #9C6F09",
"*.	c #9A6607",
"=.	c #AA7808",
"                  . +                   ",
"              . . . @ # .               ",
"              . $ . $ $ .               ",
"              % & $ * = .               ",
"              - ; > , ' .               ",
"              ) ! ~ { ] .               ",
"              $ ^ / ( _ :               ",
"              < [ } | 1 2 3             ",
"              4 5 5 6 6 7 $ .           ",
"          . 8 9 5 5 0 a b c . .         ",
"          . d e f g 6 6 h i j k         ",
"          . e 6 6 6 6 6 6 f j k .       ",
"          l 6 6 6 6 0 g 6 6 m n .       ",
"        $ o 6 6 6 6 f 0 5 5 p q .       ",
"        r s a e 6 6 6 g t u v v w       ",
"    x y z A B C 6 6 6 g D E F G H       ",
"    I z z z J K 6 6 6 L M N O P z       ",
"    Q z z z R S 6 6 e d T U z z z V     ",
"    W X Y Z `  .. . . . ..+.@.#.$.      ",
"          %.&.            *.=.          "};
