/* XPM */
static char * right_active_xpm[] = {
"6 32 2 1",
" 	c None",
".	c #102032",
"..... ",
"..... ",
"..... ",
"..... ",
"..... ",
"..... ",
"..... ",
"..... ",
"..... ",
"..... ",
"..... ",
"..... ",
"..... ",
"..... ",
"..... ",
"..... ",
"..... ",
"..... ",
"..... ",
"..... ",
"..... ",
"..... ",
"..... ",
"..... ",
"..... ",
"..... ",
"..... ",
"..... ",
"..... ",
"..... ",
"..... ",
"..... "};
