/* XPM */
static char * shade_inactive_xpm[] = {
"12 24 2 1",
" 	c None",
".	c #102032",
"            ",
"            ",
"            ",
"            ",
"            ",
"            ",
"            ",
"            ",
"            ",
"            ",
"            ",
"            ",
"            ",
"            ",
"            ",
"            ",
"            ",
"            ",
"............",
"............",
"............",
"............",
"............",
"............"};
