/* XPM */
static char * title_5_active_xpm[] = {
"12 24 2 1",
" 	c None",
".	c #102032",
"            ",
"            ",
"            ",
"            ",
"            ",
"            ",
"            ",
"            ",
"            ",
"            ",
"            ",
"            ",
"            ",
"            ",
"            ",
"            ",
"            ",
"            ",
"............",
"............",
"............",
"............",
"............",
"............"};
