/* XPM */
static char * top_left_inactive_xpm[] = {
"27 79 3 1",
" 	c None",
".	c #0F2D36",
"+	c #102032",
"     ......................",
"   ........................",
"  .........................",
" ..........................",
" ..........................",
"...........................",
"...........................",
"...........................",
"...........................",
"...........................",
"...........................",
"...........................",
"...........................",
"...........................",
"...........................",
"...........................",
"...........................",
"...........................",
".............++++++++++++++",
"...........++++++++++++++++",
"..........+++++++++++++++++",
"..........+++++++++++++++++",
".........++++++++++++++++++",
".........++++++++++++++++++",
".........++++++++++++++++++",
".........++++++++++++++++++",
".........++++++++++++++++++",
".........++++++++++++++++++",
".........++++++++++++++++++",
".........++++++++++++++++++",
".........++++++++++++++++++",
".........++++++++++++++++++",
".........++++++++++++++++++",
".........++++++++++++++++++",
".........++++++++++++++++++",
".........++++++++++++++++++",
".........++++++++++++++++++",
".........++++++++++++++++++",
".........++++++++++++++++++",
".........++++++++++++++++++",
".........++++++++++++++++++",
".........++++++++++++++++++",
".........++++++++++++++++++",
".........++++++++++++++++++",
".........++++++++++++++++++",
".........++++++++++++++++++",
".........++++++++++++++++++",
".........++++++++++++++++++",
".........++++++++++++++++++",
".........++++++++++++++++++",
".........++++++++++++++++++",
".........++++++++++++++++++",
".........++++++++++++++++++",
".........++++++++++++++++++",
".........++++++++++++++++++",
".........++++++++++++++++++",
".........++++++++++++++++++",
".........++++++++++++++++++",
".........++++++++++++++++++",
".........++++++++++++++++++",
".........++++++++++++++++++",
".........++++++++++++++++++",
".........++++++++++++++++++",
".........++++++++++++++++++",
".........++++++++++++++++++",
".........++++++++++++++++++",
".........++++++++++++++++++",
".........++++++++++++++++++",
".........++++++++++++++++++",
" ........++++++++++++++++++",
" ........++++++++++++++++++",
"  .......++++++++++++++++++",
"  .......++++++++++++++++++",
"   ......++++++++++++++++++",
"     ....++++++++++++++++++",
"      ...++++++++++++++++++",
"        .++++++++++++++++++",
"         ++++++++++++++++++",
"         ++++++++++++++++++"};
