/* XPM */
static char * top_right_active_xpm[] = {
"11 25 2 1",
" 	c None",
".	c #102032",
"           ",
"           ",
"           ",
"           ",
"           ",
"           ",
"           ",
"           ",
"           ",
"           ",
"           ",
"           ",
"           ",
"           ",
"           ",
"           ",
"           ",
"           ",
"......     ",
"........   ",
".........  ",
".........  ",
".......... ",
".......... ",
".......... "};
